# xmcd
#
# Track frame offsets: 
#        150
#        36861
#        72117
#        103739
#        140683
#        191954
#        220596
#        268732
#        308004
#
# Disc length: 4528 seconds
#
# Revision: 0
# Processed by: cddbd v1.5.2PL0 Copyright (c) Steve Scherf et al.
# Submitted via: ExactAudioCopy v1.3
#
DISCID=8711ae09
DTITLE=Various Artist - German Techno Volume 2 [CD1]
DYEAR=2006
DGENRE=Techno
TTITLE0=Hardfloor - Soulful Spirit
TTITLE1=Elektrochemie - You're My Kind
TTITLE2=Oliver Hacke - Subject Carrier (Alex Under Remix)
TTITLE3=Claude VonStroke - Seven Deadly Strokes (Patrick Chardronnet R
TTITLE3=emix)
TTITLE4=Loco Dice - Carthago
TTITLE5=Chikinki - Assassinator 13 (Anthony Rother Remix)
TTITLE6=Chelonis R. Jones - Deer In The Headlights (DJ Hell Remix)
TTITLE7=Dominik Eulberg and Gabriel Ananda - Harzer Roller
TTITLE8=Johannes Heil - Freaks Are Us
EXTD=
EXTT0=
EXTT1=
EXTT2=
EXTT3=
EXTT4=
EXTT5=
EXTT6=
EXTT7=
EXTT8=
PLAYORDER=
